<svg id="Ebene_1" data-name="Ebene 1" xmlns="http://www.w3.org/2000/svg" viewBox="0 0 140.87 141.59"><defs><style>.cls-1{fill:#0a76bb;}.cls-2{fill:#ed762c;}</style></defs><title>Coplon_Symbol_SVG</title><path d="M150.43,136.73a71,71,0,0,1-15.12,14.84,88.07,88.07,0,0,0-10.23,1.72,153.61,153.61,0,0,1-31.46,3.92h0a153.44,153.44,0,0,1-31.44-3.92,87.39,87.39,0,0,0-9.71-1.66h0A71.22,71.22,0,0,1,43.52,144a70.38,70.38,0,0,1-6.28-7.26c8,.21,15.68,1.07,23.31,4.25,3,1.27,7.28,4,11.67,5.49a64.19,64.19,0,0,0,21.38,3.57h0A64.12,64.12,0,0,0,115,146.48c4.39-1.54,8.63-4.22,11.67-5.49C134.44,137.75,142.22,136.91,150.43,136.73Z" transform="translate(-23.4 -23.4)"/><path d="M120.24,28.49c-7.92-.61-16.46-1.17-26.62-1.35h0c-9.92.17-18.29.71-26,1.3a71,71,0,0,1,52.69,0Z" transform="translate(-23.4 -23.4)"/><path d="M150.43,51.66c-8.21-.18-16-1-23.75-4.26-3-1.27-7.28-4-11.67-5.5a64.2,64.2,0,0,0-21.39-3.57h0a64.27,64.27,0,0,0-21.38,3.57c-4.39,1.54-8.63,4.22-11.67,5.5-7.62,3.18-15.26,4-23.31,4.25a71,71,0,0,1,6.28-7.26h0a70.34,70.34,0,0,1,8.92-7.64,85.88,85.88,0,0,0,9.71-1.66A153.23,153.23,0,0,1,93.6,31.18h0a153.17,153.17,0,0,1,31.46,3.92,87.28,87.28,0,0,0,10.22,1.72,71.23,71.23,0,0,1,15.12,14.84Z" transform="translate(-23.4 -23.4)"/><path class="cls-1" d="M164.27,87h-.5c-14.36.26-26.81.92-37.28-8.49-3.4-3.05-5.55-7.64-8.63-10.6a34.59,34.59,0,0,0-24.22-9.56h0A34.59,34.59,0,0,0,69.37,67.9c-3.07,3-5.23,7.55-8.63,10.6C50.27,87.91,37.82,87.25,23.46,87H23.4a69.18,69.18,0,0,1,1.07-7.07h0a68.93,68.93,0,0,1,1.83-7.06A69.88,69.88,0,0,1,29,65.79c9.88,0,18.82.34,27.27-3.38,7-3.08,11.73-8.79,17.35-11.57a46,46,0,0,1,40,0C119.26,53.62,124,59.34,131,62.41c8.58,3.77,17.65,3.41,27.71,3.38a70.5,70.5,0,0,1,4.49,14.13h0A69.18,69.18,0,0,1,164.27,87Z" transform="translate(-23.4 -23.4)"/><path d="M120.22,159.91a71,71,0,0,1-52.67,0c7.76.59,16.13,1.13,26,1.3h0C103.78,161.08,112.31,160.52,120.22,159.91Z" transform="translate(-23.4 -23.4)"/><path class="cls-2" d="M164.27,101.37a70.13,70.13,0,0,1-5.57,21.24c-10.05,0-19.13-.39-27.7,3.38-7,3.08-11.73,8.79-17.35,11.57a46,46,0,0,1-40,0C68,134.77,63.24,129.06,56.24,126c-8.46-3.71-17.39-3.42-27.27-3.38a70.23,70.23,0,0,1-5.57-21.24h.06c14.36-.26,26.81-.92,37.28,8.49,3.4,3.05,5.55,7.64,8.63,10.6A34.59,34.59,0,0,0,93.62,130h0a34.59,34.59,0,0,0,24.22-9.56c3.07-3,5.23-7.55,8.63-10.6,10.48-9.41,22.93-8.75,37.28-8.49Z" transform="translate(-23.4 -23.4)"/></svg>